<svg width="80" height="80" xmlns="http://www.w3.org/2000/svg">

 <g>
  <title>background</title>
  <rect fill="#333333" id="canvas_background" height="82" width="82" y="-1" x="-1"/>
 </g>
 <g>
  <title>Layer 1</title>
  <path stroke="#191919" fill="#7f0000" id="svg_2" d="m58.10303,53.306061c0,0 0,0 0,0c-10.2,0.6 -20.7,-0.7 -28.3,-2.1c-0.2,-3.5 -0.5,-25.1 18.3,-34.5c16.3,9.4 10.1,36.3 10,36.6zm-35.8,-20.5l0.1,-0.3c0,-0.1 1.9,-9.4 13.8,-12.5c0.7,-0.2 1.4,-0.5 2,-0.7c0.8,-0.3 1.5,-0.6 2.2,-0.7c0.5,-0.1 0.9,-0.2 1.3,-0.2c-13.7,10.5 -14,28 -13.9,32.4c-3.9,-0.7 -6.8,-1.5 -8.2,-1.8c0.1,-0.6 0.1,-1.3 0.2,-2.1c0.5,-4.3 1.2,-11.5 2.5,-14.1zm33,25.7c-5,2.2 -9.2,3.6 -10.6,3.6l-0.1,0c-3.7,0.4 -7.6,0.4 -9.6,0c-2.3,-0.5 -8.7,-2.2 -13.7,-3.7c-0.1,0 -1.8,-0.5 -4.3,-0.5c-1.4,0 -3.1,0.2 -4.9,0.6c-0.6,0.2 -5.4,1.8 -6.7,2.3c0.3,-0.2 0.6,-0.5 0.9,-0.7c6.9,-4.6 11.1,-7.7 12.6,-9.3c3.3,0.8 18.6,4.5 34.3,4.5c2.3,0 4.7,-0.1 7,-0.3c-1.1,1.2 -2.7,2.4 -4.9,3.5zm17.8,-11.4c-0.5,3.5 -0.9,5.9 -1.2,7.1c-0.7,0.1 -2.9,0 -8.3,-1.4c0,0 0,0 0,0c0,0 0,0 0,0c-0.1,0 -0.2,0 -0.3,0c0,0 0,0 0,0c-1,0.1 -2,0.2 -3,0.3c0.8,-3.7 4.3,-23.4 -6.2,-34.4c1.5,0.6 3.1,1.3 4.6,2l0.2,0.1c0,0.1 16.4,4.6 14.2,26.3z"/>
 </g>
</svg>