<svg width="80" height="80" xmlns="http://www.w3.org/2000/svg">

 <g>
  <title>background</title>
  <rect fill="#333333" id="canvas_background" height="82" width="82" y="-1" x="-1"/>
 </g>
 <g>
  <title>Layer 1</title>
  <path stroke="#191919" fill="#7f0000" id="svg_1" d="m63.8,18.8c-1.1,-1.4 -9.4,-2.5 -13.7,-5.8c0,0 -0.6,-0.2 -1,0.3c-2.1,3.1 -4.2,5.7 -9.1,5.7c-4.9,0 -7,-2.6 -9.1,-5.7c-0.3,-0.5 -1,-0.3 -1,-0.3c-4.3,3.2 -12.6,4.4 -13.7,5.8c-2.4,3.1 -5.8,9.9 -8.1,14.3c2.1,3.5 6.9,5.6 10.3,5.9c1.1,-1.1 2.8,-4.3 3.8,-4.3c0.5,0 1.5,3.4 1.5,10.7c0,5.5 -1.8,16.6 -1.8,20.1c4.3,1.6 13.1,1.5 18.1,1.5s13.8,0.1 18.1,-1.5c0,-3.5 -1.8,-14.6 -1.8,-20.1c0,-7.3 1,-10.7 1.5,-10.7c1,0 2.7,3.2 3.8,4.3c3.3,-0.3 8.1,-2.5 10.3,-5.9c-2.3,-4.4 -5.7,-11.2 -8.1,-14.3z" class="st0"/>
 </g>
</svg>