<svg width="80" height="80" xmlns="http://www.w3.org/2000/svg">

 <g>
  <title>background</title>
  <rect fill="#333333" id="canvas_background" height="82" width="82" y="-1" x="-1"/>
 </g>
 <g>
  <title>Layer 1</title>
  <path stroke="#191919" id="svg_1" fill="#7f0000" d="m51.279565,40.679753c-0.008654,-0.125487 -0.017926,-0.249744 -0.024107,-0.388149c-0.232418,-5.391645 -3.735379,-7.666409 -5.226935,-8.395957c-0.988395,1.332379 -3.762577,7.112174 -5.642939,11.705375c-1.884688,4.598123 -3.723635,7.069114 -7.146857,8.346746c-2.334689,0.871644 -4.461068,0.401067 -5.578035,0.012918l-0.734342,-0.305721c-1.260992,0.557311 -5.126797,2.756413 -5.205918,8.841314l7.286555,0c0.552611,0.036908 1.040318,0.033832 1.477339,0l6.036071,0l0,0.007382l2.603577,0l1.429124,-3.583768c0.120536,-0.280501 0.252198,-0.593604 0.386951,-0.92147l0,0l4.0463,-7.989354l1.170126,12.361108l0,0.190691l1.365456,0l1.709757,-10.376072l1.890252,-8.463007l-0.001236,0c0.08283,-0.356162 0.131044,-0.689565 0.15886,-1.042036z"/>
 </g>
</svg>