<svg width="80" height="80" xmlns="http://www.w3.org/2000/svg">

 <g>
  <title>background</title>
  <rect fill="#333333" id="canvas_background" height="82" width="82" y="-1" x="-1"/>
 </g>
 <g>
  <title>Layer 1</title>
  <path stroke="null" fill="#7f0000" id="svg_1" d="m55.888952,22.502146c-0.772041,-1.071479 -6.597443,-1.913356 -9.615422,-4.438985c0,0 -0.421113,-0.153068 -0.701856,0.229603c-1.473897,2.372561 -2.947794,4.362451 -6.386886,4.362451c-3.439092,0 -4.912989,-1.98989 -6.386886,-4.362451c-0.210557,-0.382671 -0.701856,-0.229603 -0.701856,-0.229603c-3.017979,2.449095 -8.843381,3.367506 -9.615422,4.438985c-1.684453,2.372561 -4.070763,7.576889 -5.68503,10.944395c1.473897,2.678698 4.842804,4.285917 7.229113,4.51552c0.772041,-0.841877 1.965196,-3.290972 2.667051,-3.290972c0.350928,0 1.052783,2.602164 1.052783,8.189163c0,4.209383 -1.26334,12.704682 -1.26334,15.38338c3.017979,1.224548 9.194309,1.148013 12.703587,1.148013s9.685607,0.076534 12.703587,-1.148013c0,-2.678698 -1.26334,-11.173998 -1.26334,-15.38338c0,-5.586999 0.701856,-8.189163 1.052783,-8.189163c0.701856,0 1.89501,2.449095 2.667051,3.290972c2.316124,-0.229603 5.68503,-1.913356 7.229113,-4.51552c-1.614268,-3.367506 -4.000577,-8.571834 -5.68503,-10.944395z" class="st0"/>
  <path stroke="null" d="m4,11.637413c0,1.358693 7.965414,9.827027 16.828638,17.662933c11.234141,9.93202 18.882087,14.66687 23.560099,19.021618c5.513091,5.132132 10.097195,9.510798 11.780058,12.228169c1.682863,2.717385 4.694932,4.182644 6.731452,8.152127c1.440034,2.806849 3.365744,2.717371 3.365744,4.076056l1.682863,0l0,1.358685" id="svg_2" stroke-opacity="null" stroke-width="null" fill="none"/>
  <ellipse stroke="null" ry="5.253589" rx="5.344168" id="svg_3" cy="10.731622" cx="14.819006" fill-opacity="null" stroke-opacity="null" stroke-width="null" fill="none"/>
 </g>
</svg>